<svg xmlns="http://www.w3.org/2000/svg" width="17.352" height="12.655" viewBox="0 0 17.352 12.655">
  <g id="Group_206" data-name="Group 206" transform="translate(-23.157 -227.127)">
    <path id="Path_23" data-name="Path 23" d="M22.453,76.657H18.135V73.966a7.525,7.525,0,0,1,7.992-7.7h.368a7.525,7.525,0,0,1,7.993,7.7v2.691H30.168" transform="translate(5.522 161.362)" fill="none" stroke="#374253" stroke-miterlimit="10" stroke-width="1"/>
    <path id="Path_24" data-name="Path 24" d="M26.992,75.455a1.75,1.75,0,1,1-1.746-1.624A1.688,1.688,0,0,1,26.992,75.455Z" transform="translate(6.564 162.203)" fill="none" stroke="#374253" stroke-miterlimit="10" stroke-width="1"/>
    <line id="Line_14" data-name="Line 14" y1="5.099" x2="2.608" transform="translate(32.586 231.107)" fill="none" stroke="#374253" stroke-miterlimit="10" stroke-width="1"/>
    <rect id="Rectangle_51" data-name="Rectangle 51" width="1.874" height="1.743" transform="translate(25.415 233.332)" fill="#374253"/>
    <rect id="Rectangle_52" data-name="Rectangle 52" width="1.874" height="1.743" transform="translate(27.289 230.277)" fill="#374253"/>
    <rect id="Rectangle_53" data-name="Rectangle 53" width="1.874" height="1.743" transform="translate(30.896 229.019)" fill="#374253"/>
    <rect id="Rectangle_54" data-name="Rectangle 54" width="1.874" height="1.743" transform="translate(36.569 233.332)" fill="#374253"/>
  </g>
</svg>
