<svg id="Group_195" data-name="Group 195" xmlns="http://www.w3.org/2000/svg" xmlns:xlink="http://www.w3.org/1999/xlink" width="13.874" height="13.654" viewBox="0 0 13.874 13.654">
  <defs>
    <clipPath id="clip-path">
      <rect id="Rectangle_133" data-name="Rectangle 133" width="13.874" height="13.654" transform="translate(0 0)" fill="none"/>
    </clipPath>
  </defs>
  <g id="Group_194" data-name="Group 194" clip-path="url(#clip-path)">
    <path id="Path_79" data-name="Path 79" d="M6.853,13.654a2.251,2.251,0,0,1-1.617-.7L.2,7.76a.736.736,0,0,1,0-1.008L2.247,4.636l.678.037.779.983a1.41,1.41,0,0,0,.367.33,1.317,1.317,0,0,0,.67.187,1.351,1.351,0,0,0,.979-.43,1.423,1.423,0,0,0,.23-1.7l-.006-.006a1.428,1.428,0,0,0-.312-.38l-.951-.8-.031-.7L6.528.21A.679.679,0,0,1,7.015,0,.663.663,0,0,1,7.5.21L8.938,1.854l.385-.485h.006A2.282,2.282,0,0,1,9.94.826,2.217,2.217,0,0,1,11.075.507a2.242,2.242,0,0,1,1.621.712,2.389,2.389,0,0,1,.375,2.845v.012a2.636,2.636,0,0,1-.523.629l-.473.4,1.58,1.463.012.019a.717.717,0,0,1,0,1.008L8.478,12.957a2.252,2.252,0,0,1-1.625.7M2.534,5.683,1.015,7.256l4.867,5.035a1.35,1.35,0,0,0,.971.417,1.379,1.379,0,0,0,.977-.417l5.023-5.2L11.065,5.438l.014-.722.883-.747a1.413,1.413,0,0,0,.088-2.085,1.363,1.363,0,0,0-.977-.426,1.3,1.3,0,0,0-.674.189l-.006.006a1.3,1.3,0,0,0-.361.323l-.721.909-.7.019-1.6-1.847-1.352,1.4.561.474h.006a2.619,2.619,0,0,1,.523.635,2.392,2.392,0,0,1-.379,2.851,2.259,2.259,0,0,1-1.625.707A2.229,2.229,0,0,1,3.61,6.809L3.6,6.8a2.432,2.432,0,0,1-.611-.542Z" fill="#708393"/>
  </g>
</svg>
