<svg xmlns="http://www.w3.org/2000/svg" width="12.521" height="26.932" viewBox="0 0 12.521 26.932">
  <g id="Iw9lIA.tif" transform="translate(0 0)">
    <g id="Group_4" data-name="Group 4" transform="translate(0 0)">
      <path id="Path_3" data-name="Path 3" d="M1294,341.092h-5.545V327.941a1.391,1.391,0,0,1,0-.164c.016-.132-.042-.167-.169-.166-.8,0-1.6,0-2.4,0h-.21V323h2.567c.211,0,.211,0,.212-.219,0-1.02-.014-2.039.008-3.058a7.313,7.313,0,0,1,.5-2.629,4.369,4.369,0,0,1,3.1-2.645,9.619,9.619,0,0,1,2.521-.28c1.129,0,2.258,0,3.387,0,.152,0,.207.034.206.2-.007,1.409,0,2.817,0,4.226v.176c-.079,0-.143.009-.207.009-.669,0-1.338-.011-2.006.005a5.975,5.975,0,0,0-1.058.109,1.01,1.01,0,0,0-.861,1c-.04,1.018-.03,2.037-.041,3.056,0,.009.009.019.022.045h4.174l-.489,4.618H1294Z" transform="translate(-1285.677 -314.16)" fill="#fff"/>
    </g>
  </g>
</svg>
