<svg xmlns="http://www.w3.org/2000/svg" width="37.072" height="27.193" viewBox="0 0 37.072 27.193">
  <path id="Path_12" data-name="Path 12" d="M3.717,3H27.193V9.586h4.728l5.152,6.869v8.8H33.763a5.363,5.363,0,0,1-10.694,0H14a5.363,5.363,0,0,1-10.694,0H0V6.717A3.726,3.726,0,0,1,3.717,3Zm22.629.847H3.717a2.879,2.879,0,0,0-2.87,2.87V24.406H4.14v.424a4.516,4.516,0,1,0,9.032,0v-.424H23.9v.424a4.516,4.516,0,1,0,9.032,0v-.424h3.293V16.737l-4.728-6.3H26.346Zm0,8.209h4.746l3.891,4.964H26.346Zm4.334.847H27.193v3.269h6.05ZM8.657,22.759a2.07,2.07,0,1,1-2.07,2.07A2.072,2.072,0,0,1,8.657,22.759Zm0,3.293a1.223,1.223,0,1,0-1.223-1.223A1.224,1.224,0,0,0,8.657,26.052Zm19.759-3.293a2.07,2.07,0,1,1-2.07,2.07A2.072,2.072,0,0,1,28.416,22.759Zm0,3.293a1.223,1.223,0,1,0-1.223-1.223A1.224,1.224,0,0,0,28.416,26.052Z" transform="translate(0 -3)" fill="#ec0989"/>
</svg>
