<svg xmlns="http://www.w3.org/2000/svg" width="30.65" height="30.65" viewBox="0 0 30.65 30.65">
  <g id="Group_26" data-name="Group 26" transform="translate(0.5 0.5)">
    <g id="Group_25" data-name="Group 25">
      <path id="Path_15" data-name="Path 15" d="M28.685,2H4.965A3.074,3.074,0,0,0,2,4.965V9.427a3,3,0,0,0,1.482,2.505V28.685A3.186,3.186,0,0,0,6.447,31.65H27.2a3.186,3.186,0,0,0,2.965-2.965V11.933A3,3,0,0,0,31.65,9.427V4.965A3.074,3.074,0,0,0,28.685,2ZM6.447,28.685Z" transform="translate(-2 -2)" fill="none" stroke="#ec0989" stroke-width="1"/>
      <rect id="Rectangle_93" data-name="Rectangle 93" width="9" height="3" transform="translate(10.035 15.035)" fill="none" stroke="#ec0989" stroke-width="1"/>
      <path id="Path_16" data-name="Path 16" d="M1.582,9.911,27.812,10" transform="translate(0.128 0.128)" fill="none" stroke="#ec0989" stroke-width="1"/>
    </g>
  </g>
</svg>
