<svg xmlns="http://www.w3.org/2000/svg" width="26.894" height="26.894" viewBox="0 0 26.894 26.894">
  <g id="hoQXoy.tif" transform="translate(0 0)">
    <g id="Group_6" data-name="Group 6" transform="translate(0 0)">
      <path id="Path_5" data-name="Path 5" d="M1682.039,314.16h6.128c.106.011.212.027.318.032,1.126.056,2.255.07,3.376.174a7.125,7.125,0,0,1,3.2,1.083,7.006,7.006,0,0,1,3.156,4.632,19.793,19.793,0,0,1,.307,4.028c.023,2.687,0,5.374-.035,8.06a19.649,19.649,0,0,1-.2,2.545,7.084,7.084,0,0,1-1.834,3.918,7.161,7.161,0,0,1-3.823,2.1,19.781,19.781,0,0,1-4.047.309c-2.572.025-5.145,0-7.717-.035a24.355,24.355,0,0,1-2.588-.159,7.025,7.025,0,0,1-4.708-2.416,7.661,7.661,0,0,1-.963-1.456,9.493,9.493,0,0,1-.893-4.239q-.018-.957-.042-1.913a1.117,1.117,0,0,0-.031-.177v-6.088a1.9,1.9,0,0,0,.031-.218c.029-.865.052-1.73.082-2.6a9.032,9.032,0,0,1,.377-2.3,6.813,6.813,0,0,1,4.151-4.576,10.09,10.09,0,0,1,3.388-.634c.724-.03,1.45-.031,2.175-.048A1.438,1.438,0,0,0,1682.039,314.16Zm14.022,13.452h-.039c0-1.538.016-3.076-.008-4.613a16.365,16.365,0,0,0-.165-2.064,4.735,4.735,0,0,0-1.284-2.725,4.593,4.593,0,0,0-2.894-1.369c-1.233-.123-2.476-.2-3.715-.2-2.632-.01-5.265.031-7.9.073a12.219,12.219,0,0,0-1.8.167,4.58,4.58,0,0,0-3.018,1.77,5,5,0,0,0-.966,2.676c-.094,1.169-.159,2.344-.16,3.517,0,2.6.031,5.2.077,7.8a12.506,12.506,0,0,0,.206,2,4.477,4.477,0,0,0,1.322,2.486,4.882,4.882,0,0,0,2.5,1.225,17.079,17.079,0,0,0,3.348.231c2.928,0,5.857.092,8.783-.073a11.44,11.44,0,0,0,1.8-.207,4.474,4.474,0,0,0,3.637-3.629,18.185,18.185,0,0,0,.272-3.526C1696.091,329.964,1696.061,328.787,1696.061,327.612Z" transform="translate(-1671.637 -314.16)" fill="#fff"/>
      <path id="Path_6" data-name="Path 6" d="M1713.625,363.068a6.918,6.918,0,1,1,6.923-6.876A6.889,6.889,0,0,1,1713.625,363.068Zm4.447-6.907a4.448,4.448,0,1,0-4.441,4.434A4.472,4.472,0,0,0,1718.072,356.161Z" transform="translate(-1700.178 -342.701)" fill="#fff"/>
      <path id="Path_7" data-name="Path 7" d="M1775.165,342.409a1.6,1.6,0,0,1-1.623-1.64,1.639,1.639,0,0,1,3.277.025A1.616,1.616,0,0,1,1775.165,342.409Z" transform="translate(-1754.562 -334.499)" fill="#fff"/>
    </g>
  </g>
</svg>
