<svg id="local_shipping_black_24dp" xmlns="http://www.w3.org/2000/svg" width="122" height="122" viewBox="0 0 122 122">
  <path id="Path_11" data-name="Path 11" d="M0,0H122V122H0Z" fill="none"/>
  <path id="Path_12" data-name="Path 12" d="M97.583,24.333H82.333V4H11.167A10.2,10.2,0,0,0,1,14.167V70.083H11.167a15.25,15.25,0,0,0,30.5,0h30.5a15.25,15.25,0,0,0,30.5,0h10.167V44.667Zm-2.542,7.625L105,44.667H82.333V31.958ZM26.417,75.167A5.083,5.083,0,1,1,31.5,70.083,5.1,5.1,0,0,1,26.417,75.167Zm61,0A5.083,5.083,0,1,1,92.5,70.083,5.1,5.1,0,0,1,87.417,75.167Z" transform="translate(4.083 16.333)" fill="none" stroke="#ec0989" stroke-width="2"/>
</svg>
