<svg id="receipt_long_black_24dp" xmlns="http://www.w3.org/2000/svg" width="111.119" height="111.119" viewBox="0 0 111.119 111.119">
  <path id="Path_5" data-name="Path 5" d="M0,0H111.119V111.119H0Z" fill="none"/>
  <g id="Group_10" data-name="Group 10" transform="translate(13.89 9.26)">
    <path id="Path_6" data-name="Path 6" d="M79.394,8.945,72.449,2,65.5,8.945,58.559,2,51.614,8.945,44.669,2,37.725,8.945,30.78,2,23.835,8.945,16.89,2V66.819H3v13.89A13.871,13.871,0,0,0,16.89,94.6H72.449a13.871,13.871,0,0,0,13.89-13.89V2ZM26.15,66.819h0Zm50.929,13.89a4.63,4.63,0,1,1-9.26,0V66.819H26.15V15.89H77.079Z" transform="translate(-3 -2)" fill="none" stroke="#ec0989" stroke-width="2"/>
    <rect id="Rectangle_73" data-name="Rectangle 73" width="29" height="7" transform="translate(33.867 24.184)" fill="none" stroke="#ec0989" stroke-width="2"/>
    <rect id="Rectangle_75" data-name="Rectangle 75" width="29" height="7" transform="translate(33.867 35.299)" fill="none" stroke="#ec0989" stroke-width="2"/>
  </g>
</svg>
