<svg id="sell_black_24dp" xmlns="http://www.w3.org/2000/svg" width="122" height="122" viewBox="0 0 122 122">
  <g id="Group_17" data-name="Group 17">
    <path id="Path_7" data-name="Path 7" d="M0,0H122V122H0Z" fill="none"/>
  </g>
  <g id="Group_19" data-name="Group 19" transform="translate(10.167 10.167)">
    <g id="Group_18" data-name="Group 18">
      <path id="Path_8" data-name="Path 8" d="M100.668,49.834,55.782,4.948A10.156,10.156,0,0,0,48.614,2H12.167A10.2,10.2,0,0,0,2,12.167V48.614a9.994,9.994,0,0,0,3,7.167l44.886,44.886a10.186,10.186,0,0,0,14.386,0L100.718,64.22A10.14,10.14,0,0,0,100.668,49.834Z" transform="translate(-2 -2)" fill="none" stroke="#ec0989" stroke-width="2"/>
      <circle id="Ellipse_5" data-name="Ellipse 5" cx="8" cy="8" r="8" transform="translate(14.833 14.833)" fill="none" stroke="#ec0989" stroke-width="2"/>
    </g>
  </g>
</svg>
