<svg id="shopping_cart_black_24dp" xmlns="http://www.w3.org/2000/svg" width="122" height="122" viewBox="0 0 122 122">
  <path id="Path_9" data-name="Path 9" d="M0,0H122V122H0Z" fill="rgba(0,0,0,0)"/>
  <path id="Path_10" data-name="Path 10" d="M74.962,57.917a10.118,10.118,0,0,0,8.9-5.236l18.2-32.991a5.064,5.064,0,0,0-4.423-7.523H22.4L17.622,2H1V12.167H11.167l18.3,38.583L22.6,63.153a10.185,10.185,0,0,0,8.9,15.1h61V68.083h-61l5.592-10.167ZM27.23,22.333Zm4.27,61A10.167,10.167,0,1,0,41.667,93.5,10.153,10.153,0,0,0,31.5,83.333Zm50.833,0A10.167,10.167,0,1,0,92.5,93.5,10.153,10.153,0,0,0,82.333,83.333Z" transform="translate(4.083 8.167)" fill="none" stroke="#ec0989" stroke-width="2"/>
</svg>
