<svg xmlns="http://www.w3.org/2000/svg" width="23.056" height="17.932" viewBox="0 0 23.056 17.932">
  <path id="Icon_awesome-shopping-basket" data-name="Icon awesome-shopping-basket" d="M23.056,9.615v.64a.961.961,0,0,1-.961.961h-.32L20.73,18.532a1.921,1.921,0,0,1-1.9,1.65H4.228a1.921,1.921,0,0,1-1.9-1.65L1.281,11.216H.961A.961.961,0,0,1,0,10.255v-.64a.961.961,0,0,1,.961-.961h2.7L7.93,2.777A1.281,1.281,0,1,1,10,4.284L6.824,8.654h9.408l-3.178-4.37a1.281,1.281,0,0,1,2.072-1.507L19.4,8.654h2.7A.961.961,0,0,1,23.056,9.615ZM12.488,16.66V12.177a.961.961,0,1,0-1.921,0V16.66a.961.961,0,1,0,1.921,0Zm4.483,0V12.177a.961.961,0,0,0-1.921,0V16.66a.961.961,0,1,0,1.921,0Zm-8.966,0V12.177a.961.961,0,0,0-1.921,0V16.66a.961.961,0,1,0,1.921,0Z" transform="translate(0 -2.25)"/>
</svg>
