<svg xmlns="http://www.w3.org/2000/svg">
  <symbol xmlns="http://www.w3.org/2000/svg" viewBox="0 0 26.121 24.248" id="watch-list">
    <g id="Group_168" transform="translate(5445 -1753)">
      <g id="inventory_black_24dp" transform="translate(-5445 1753)">
        <g id="Group_155">
          <rect id="Rectangle_126" width="23.575" height="23.575" fill="none"></rect>
        </g>
        <g id="Group_157" transform="translate(2.921 0.974)">
          <g id="Group_156">
            <path id="Path_69" d="M4.947,4.895H6.895V7.815h9.736V4.895h1.947V9.763h1.947V4.895a1.953,1.953,0,0,0-1.947-1.947h-4.07a2.909,2.909,0,0,0-5.491,0H4.947A1.953,1.953,0,0,0,3,4.895V18.525a1.953,1.953,0,0,0,1.947,1.947h5.842V18.525H4.947Zm6.815-1.947a.974.974,0,1,1-.974.974A.976.976,0,0,1,11.763,2.947Z" transform="translate(-3 -1)"></path>
          </g>
        </g>
      </g>
      <g id="visibility_black_24dp" transform="translate(-5435.013 1761.115)">
        <path id="Path_71" d="M0,0H16.133V16.133H0Z" fill="none"></path>
        <path id="Path_72" d="M8.394,5.344a6.568,6.568,0,0,1,5.929,3.7,6.6,6.6,0,0,1-11.858,0,6.568,6.568,0,0,1,5.929-3.7M8.394,4A7.95,7.95,0,0,0,1,9.042a7.943,7.943,0,0,0,14.789,0A7.95,7.95,0,0,0,8.394,4Zm0,3.361A1.681,1.681,0,1,1,6.714,9.042,1.681,1.681,0,0,1,8.394,7.361m0-1.344a3.025,3.025,0,1,0,3.025,3.025A3.03,3.03,0,0,0,8.394,6.017Z" transform="translate(-0.328 -1.311)"></path>
      </g>
    </g>
  </symbol>
  <symbol id="favorite" xmlns="http://www.w3.org/2000/svg" viewBox="0 0 24 24">
    <path id="Path_64" d="M0,0H24V24H0Z" fill="none"></path>
    <path id="Path_65" d="M16.5,3A5.988,5.988,0,0,0,12,5.09,5.988,5.988,0,0,0,7.5,3,5.447,5.447,0,0,0,2,8.5c0,3.78,3.4,6.86,8.55,11.54L12,21.35l1.45-1.32C18.6,15.36,22,12.28,22,8.5A5.447,5.447,0,0,0,16.5,3ZM12.1,18.55l-.1.1-.1-.1C7.14,14.24,4,11.39,4,8.5A3.418,3.418,0,0,1,7.5,5a3.909,3.909,0,0,1,3.57,2.36h1.87A3.885,3.885,0,0,1,16.5,5,3.418,3.418,0,0,1,20,8.5C20,11.39,16.86,14.24,12.1,18.55Z"></path>
  </symbol>
</svg>