<svg xmlns="http://www.w3.org/2000/svg" width="33.089" height="26.932" viewBox="0 0 33.089 26.932">
  <g id="qp8qNc" transform="translate(0 0)">
    <g id="Group_5" data-name="Group 5" transform="translate(0)">
      <path id="Path_4" data-name="Path 4" d="M1431.259,338.026a14.319,14.319,0,0,0,9.738-2.733c-3.206-.535-5.847-2.679-5.98-4.846h2.436a6.9,6.9,0,0,1-4.855-6.794l2.541.8a8.108,8.108,0,0,1-2.4-4.248,6.741,6.741,0,0,1,.848-4.85,19.461,19.461,0,0,0,13.661,7.089,24.1,24.1,0,0,1,.224-2.954,6.723,6.723,0,0,1,7.616-5.255,7.157,7.157,0,0,1,3.687,1.711.991.991,0,0,0,.792.207c1-.319,1.97-.709,2.948-1.083.252-.1.489-.231.765-.363-.025,1.038-.593,1.873-2.517,3.717l3.446-1.01.139.14a19.155,19.155,0,0,1-1.915,2.133,3.66,3.66,0,0,0-1.508,3.009,18.5,18.5,0,0,1-3.345,10.088,18.132,18.132,0,0,1-12.806,8.073,19.319,19.319,0,0,1-12.928-2.438C1431.643,338.3,1431.454,338.157,1431.259,338.026Z" transform="translate(-1431.259 -314.16)" fill="#fff"/>
    </g>
  </g>
</svg>
